# This file uses centimeters as units for non-parametric coordinates.

mtllib testLow1.mtl
g default
v -1 -1 1
v 1 -1 1
v -1 1 1
v 1 1 1
v -1 1 -1
v 1 1 -1
v -1 -1 -1
v 1 -1 -1
v 0 0 1
v 0 1 0
v 0 0 -1
v 0 -1 0
v 1 0 0
v -1 0 0
vt 0.375000 0.000000
vt 0.625000 0.000000
vt 0.375000 0.250000
vt 0.625000 0.250000
vt 0.375000 0.500000
vt 0.625000 0.500000
vt 0.375000 0.750000
vt 0.625000 0.750000
vt 0.375000 1.000000
vt 0.625000 1.000000
vt 0.875000 0.000000
vt 0.875000 0.250000
vt 0.125000 0.000000
vt 0.125000 0.250000
vt 0.500000 0.125000
vt 0.500000 0.375000
vt 0.500000 0.625000
vt 0.500000 0.875000
vt 0.750000 0.250000
vt 0.250000 0.250000
vn 0.000000 0.000000 1.000000
vn 0.000000 0.000000 1.000000
vn 0.000000 0.000000 1.000000
vn 0.000000 0.000000 1.000000
vn 0.000000 1.000000 0.000000
vn 0.000000 1.000000 0.000000
vn 0.000000 1.000000 0.000000
vn 0.000000 1.000000 0.000000
vn 0.000000 0.000000 -1.000000
vn 0.000000 0.000000 -1.000000
vn 0.000000 0.000000 -1.000000
vn 0.000000 0.000000 -1.000000
vn 0.000000 -1.000000 0.000000
vn 0.000000 -1.000000 0.000000
vn 0.000000 -1.000000 0.000000
vn 0.000000 -1.000000 0.000000
vn 1.000000 0.000000 0.000000
vn 1.000000 0.000000 0.000000
vn 1.000000 0.000000 0.000000
vn 1.000000 0.000000 0.000000
vn -1.000000 0.000000 0.000000
vn -1.000000 0.000000 0.000000
vn -1.000000 0.000000 0.000000
vn -1.000000 0.000000 0.000000
s 1
g pCube3
usemtl initialShadingGroup
f 1/1/1 2/2/2 9/15/3
f 2/2/2 4/4/4 9/15/3
f 4/4/4 3/3/3 9/15/3
f 3/3/3 1/1/1 9/15/3
s 2
f 3/3/5 4/4/6 10/16/7
f 4/4/6 6/6/8 10/16/7
f 6/6/7 5/5/7 10/16/7
f 5/5/7 3/3/5 10/16/7
s 3
f 5/5/9 6/6/10 11/17/11
f 6/6/10 8/8/12 11/17/11
f 8/8/12 7/7/11 11/17/11
f 7/7/11 5/5/9 11/17/11
s 4
f 7/7/13 8/8/14 12/18/15
f 8/8/14 2/10/16 12/18/15
f 2/10/16 1/9/15 12/18/15
f 1/9/ 7/7/13 12/18/15
s 5
f 2/2/17 8/11/18 13/19/19
f 8/11/18 6/12/20 13/19/19
f 6/12/20 4/4/19 13/19/19
f 4/4/19 2/2/17 13/19/19
s 6
f 7/13/21 1/1/22 14/20/23
f 1/1/22 3/3/24 14/20/23
f 3/3/24 5/14/23 14/20/23
f 5/14/23 7/13/21 14/20/23